<?xml version="1.0" standalone="no"?><!DOCTYPE svg PUBLIC "-//W3C//DTD SVG 1.1//EN" "http://www.w3.org/Graphics/SVG/1.1/DTD/svg11.dtd"><svg t="1632558121304" class="icon" viewBox="0 0 1024 1024" version="1.1" xmlns="http://www.w3.org/2000/svg" p-id="1238" xmlns:xlink="http://www.w3.org/1999/xlink" width="16" height="16"><defs><style type="text/css"></style></defs><path d="M0 0h1024v1024H0V0z" fill="#202425" opacity=".01" p-id="1239"></path><path d="M204.8 341.333333a307.2 307.2 0 1 1 614.4 0v68.266667a307.2 307.2 0 1 1-614.4 0v-68.266667z m307.2-238.933333a238.933333 238.933333 0 0 0-238.933333 238.933333v68.266667a238.933333 238.933333 0 1 0 477.866666 0v-68.266667a238.933333 238.933333 0 0 0-238.933333-238.933333z" fill="#FFAA44" p-id="1240"></path><path d="M102.4 409.6a34.133333 34.133333 0 0 1 34.133333-34.133333h750.933334a34.133333 34.133333 0 0 1 34.133333 34.133333v546.133333a34.133333 34.133333 0 0 1-34.133333 34.133334H136.533333a34.133333 34.133333 0 0 1-34.133333-34.133334V409.6z" fill="#11AA66" p-id="1241"></path><path d="M512 546.133333a34.133333 34.133333 0 0 1 34.133333 34.133334v204.8a34.133333 34.133333 0 1 1-68.266666 0v-204.8a34.133333 34.133333 0 0 1 34.133333-34.133334z" fill="#FFFFFF" p-id="1242"></path></svg>