<svg id="b4307047-a1c6-4dc2-bf8f-0a49d2475780" data-name="Слой 1" xmlns="http://www.w3.org/2000/svg" viewBox="0 0 125.61 141.1"><title>Jelastic LE_02</title><path d="M62.76,35.4,35,51.45,32.32,53v-.08L1.84,70.55V92.67c0,13.31.22,13.19,11.27,19.56l38.36,22.13c11,6.37,11,6.68,22.58,0l38.34-22.13c11-6.37,11.27-6.25,11.27-19.56V48.4c0-4.33.67-8.31-1.51-12.13S116,31,112.35,28.86L74.05,6.73c-11-6.37-11-6.66-22.58,0l-19.15,11,12,6.9c4.74,2.71,13.54,7.45,18.28,10.16m.12,70.86L32.32,88.13,62.76,70.55,93.22,88.13Z" fill="#01b7a5"/><path d="M62.72,141.1c-3,0-6-1.59-11.44-4.74l-39.69-22.9C.43,107,0,106.26,0,92.67V70.55L.92,69,31.4,51.3l.07,0,28-16.17C57.42,34,55,32.7,52.64,31.4c-3.34-1.84-6.8-3.74-9.19-5.11l-12-6.9V16.21l19.15-11c11.84-6.8,12.73-6.82,23.75-.41l.67.39,38.3,22.13c.73.43,1.46.83,2.18,1.22,3,1.66,6.19,3.37,8.27,6.83s1.94,7.24,1.83,10.76c0,.76,0,1.54-.05,2.32V92.67c0,13.6-.43,14.37-11.58,20.8L75,135.95C69,139.4,65.84,141.1,62.72,141.1Zm-59-69.49V92.67c0,6.25,0,9.34,1.18,11.34s3.6,3.41,8.57,6.27l39.7,22.9c9.66,5.58,9.66,5.58,20-.42l39-22.48c5-2.86,7.45-4.3,8.57-6.27s1.18-5.1,1.18-11.34V48.4c0-.83,0-1.63.06-2.43.11-3.29.2-6.13-1.32-8.79s-4-3.91-6.86-5.47c-.76-.41-1.52-.83-2.28-1.27l-39-22.52c-9.62-5.59-9.61-5.59-20.07.42L36,17.79l9.27,5.31c2.36,1.35,5.81,3.24,9.14,5.08s6.76,3.72,9.14,5.08l-1,1.76,1.14,2L33.24,54.57l-.07,0Zm60,35.69H61.84L31.4,89.72V86.54L61.84,69h1.84L94.14,86.54v3.18ZM36,88.13l26.77,15.46L89.55,88.13,62.76,72.67Z" fill="#0be0bc"/><polygon points="94.44 88.17 90.76 88.17 90.76 53.69 31.25 19.18 33.09 16 94.44 51.57 94.44 88.17" fill="#0be0bc"/></svg>